<svg width="30" height="30" viewBox="0 0 30 30" fill="none" xmlns="http://www.w3.org/2000/svg">
<path d="M15 19.375C16.2083 19.375 17.2396 18.9479 18.0938 18.0938C18.9479 17.2396 19.375 16.2083 19.375 15C19.375 13.7917 18.9479 12.7604 18.0938 11.9062C17.2396 11.0521 16.2083 10.625 15 10.625C13.7917 10.625 12.7604 11.0521 11.9062 11.9062C11.0521 12.7604 10.625 13.7917 10.625 15C10.625 16.2083 11.0521 17.2396 11.9062 18.0938C12.7604 18.9479 13.7917 19.375 15 19.375ZM15 21.25C13.2708 21.25 11.7969 20.6406 10.5781 19.4219C9.35937 18.2031 8.75 16.7292 8.75 15C8.75 13.2708 9.35937 11.7969 10.5781 10.5781C11.7969 9.35937 13.2708 8.75 15 8.75C16.7292 8.75 18.2031 9.35937 19.4219 10.5781C20.6406 11.7969 21.25 13.2708 21.25 15C21.25 16.7292 20.6406 18.2031 19.4219 19.4219C18.2031 20.6406 16.7292 21.25 15 21.25ZM2.1875 15.9375C1.91667 15.9375 1.69271 15.849 1.51562 15.6719C1.33854 15.4948 1.25 15.2708 1.25 15C1.25 14.7292 1.33854 14.5052 1.51562 14.3281C1.69271 14.151 1.91667 14.0625 2.1875 14.0625H5.3125C5.58333 14.0625 5.80729 14.151 5.98437 14.3281C6.16146 14.5052 6.25 14.7292 6.25 15C6.25 15.2708 6.16146 15.4948 5.98437 15.6719C5.80729 15.849 5.58333 15.9375 5.3125 15.9375H2.1875ZM24.6875 15.9375C24.4167 15.9375 24.1927 15.849 24.0156 15.6719C23.8385 15.4948 23.75 15.2708 23.75 15C23.75 14.7292 23.8385 14.5052 24.0156 14.3281C24.1927 14.151 24.4167 14.0625 24.6875 14.0625H27.8125C28.0833 14.0625 28.3073 14.151 28.4844 14.3281C28.6615 14.5052 28.75 14.7292 28.75 15C28.75 15.2708 28.6615 15.4948 28.4844 15.6719C28.3073 15.849 28.0833 15.9375 27.8125 15.9375H24.6875ZM15 6.25C14.7292 6.25 14.5052 6.16146 14.3281 5.98437C14.151 5.80729 14.0625 5.58333 14.0625 5.3125V2.1875C14.0625 1.91667 14.151 1.69271 14.3281 1.51562C14.5052 1.33854 14.7292 1.25 15 1.25C15.2708 1.25 15.4948 1.33854 15.6719 1.51562C15.849 1.69271 15.9375 1.91667 15.9375 2.1875V5.3125C15.9375 5.58333 15.849 5.80729 15.6719 5.98437C15.4948 6.16146 15.2708 6.25 15 6.25ZM15 28.75C14.7292 28.75 14.5052 28.6615 14.3281 28.4844C14.151 28.3073 14.0625 28.0833 14.0625 27.8125V24.6875C14.0625 24.4167 14.151 24.1927 14.3281 24.0156C14.5052 23.8385 14.7292 23.75 15 23.75C15.2708 23.75 15.4948 23.8385 15.6719 24.0156C15.849 24.1927 15.9375 24.4167 15.9375 24.6875V27.8125C15.9375 28.0833 15.849 28.3073 15.6719 28.4844C15.4948 28.6615 15.2708 28.75 15 28.75ZM7.5 8.8125L5.71875 7.0625C5.53125 6.875 5.44271 6.65104 5.45313 6.39063C5.46354 6.13021 5.55208 5.90625 5.71875 5.71875C5.90625 5.53125 6.13021 5.4375 6.39063 5.4375C6.65104 5.4375 6.875 5.53125 7.0625 5.71875L8.8125 7.5C8.97917 7.6875 9.0625 7.90625 9.0625 8.15625C9.0625 8.40625 8.97917 8.61458 8.8125 8.78125C8.64583 8.96875 8.43229 9.0625 8.17187 9.0625C7.91146 9.0625 7.6875 8.97917 7.5 8.8125ZM22.9375 24.2812L21.1875 22.5C21.0208 22.3125 20.9375 22.0885 20.9375 21.8281C20.9375 21.5677 21.0313 21.3542 21.2188 21.1875C21.3854 21 21.5938 20.9063 21.8438 20.9063C22.0938 20.9063 22.3125 21 22.5 21.1875L24.2812 22.9375C24.4687 23.125 24.5573 23.349 24.5469 23.6094C24.5365 23.8698 24.4479 24.0937 24.2812 24.2812C24.0937 24.4687 23.8698 24.5625 23.6094 24.5625C23.349 24.5625 23.125 24.4687 22.9375 24.2812ZM21.1875 8.8125C21 8.625 20.9063 8.40625 20.9063 8.15625C20.9063 7.90625 21 7.6875 21.1875 7.5L22.9375 5.71875C23.125 5.53125 23.349 5.44271 23.6094 5.45313C23.8698 5.46354 24.0937 5.55208 24.2812 5.71875C24.4687 5.90625 24.5625 6.13021 24.5625 6.39063C24.5625 6.65104 24.4687 6.875 24.2812 7.0625L22.5 8.8125C22.3333 8.97917 22.1198 9.0625 21.8594 9.0625C21.599 9.0625 21.375 8.97917 21.1875 8.8125ZM5.71875 24.2812C5.53125 24.0937 5.4375 23.8698 5.4375 23.6094C5.4375 23.349 5.53125 23.125 5.71875 22.9375L7.5 21.1875C7.6875 21 7.90625 20.9063 8.15625 20.9063C8.40625 20.9063 8.625 21 8.8125 21.1875C9 21.375 9.09375 21.5938 9.09375 21.8438C9.09375 22.0938 9 22.3125 8.8125 22.5L7.0625 24.2812C6.875 24.4687 6.65104 24.5573 6.39063 24.5469C6.13021 24.5365 5.90625 24.4479 5.71875 24.2812Z" fill="white"/>
</svg>
