<svg width="156" height="45" viewBox="0 0 156 45" fill="none" xmlns="http://www.w3.org/2000/svg">
<g clip-path="url(#clip0_13_255)">
<path d="M134.74 11.6232H137.923V27.1726H134.74V11.6232ZM137.923 6.36661H134.74V8.69038H137.923V6.36661ZM123.376 24.8445C122.309 24.8445 121.035 24.5767 121.035 22.417V6.36661H117.851V22.227C117.851 25.0777 119.657 27.1726 122.508 27.1726H123.371V24.8445H123.376ZM131.915 24.8445C130.762 24.8445 129.224 24.8402 129.224 22.417V13.9556H131.915V11.6189H129.224V6.36661H126.041V11.6189H123.333V13.9556H126.041V22.2227C126.041 25.0734 127.846 27.1682 130.697 27.1682H131.915V24.8445V24.8445ZM107.567 27.1639L114.184 27.1726V11.6232H111.001V24.8272H108.733C107.921 24.8272 107.261 24.1663 107.261 23.3543V11.6232H104.077V23.674C104.077 25.6003 105.641 27.1639 107.567 27.1639ZM149.866 11.6189H145.763C145.763 11.3727 145.469 8.75517 148.976 8.69038H149.866V6.36229H148.976C144.929 6.36229 142.648 8.10728 142.579 11.6189H140.636V13.9556H142.579V27.1682H145.763V13.9556H149.866V11.6189ZM152.056 27.1726H155.239V11.6232H152.056V27.1726ZM155.239 6.36661H152.056V8.69038H155.239V6.36661ZM44.86 6.39685C44.86 2.51814 42.3462 0 38.4632 0H6.40117C2.51814 0 0 2.51382 0 6.39685V38.4632C0 42.3419 2.51382 44.86 6.40117 44.86H38.4632C42.3419 44.86 44.8643 42.3462 44.8643 38.4632L44.86 6.39685ZM38.1651 42.0136H6.6992C4.15946 42.0136 2.85072 40.7049 2.85072 38.1651V6.69488C2.85072 4.15514 4.15946 2.8464 6.6992 2.8464H38.1651C40.7049 2.8464 42.0136 4.15514 42.0136 6.69488V38.1651C42.0136 40.7049 40.7049 42.0136 38.1651 42.0136ZM36.5497 15.2816V27.1682H33.28V15.761C33.28 14.9706 32.7617 14.4566 31.9929 14.4566H30.1442V27.1682H26.8745V14.4609H23.7387V27.1726H20.469V11.6232H32.887C35.1675 11.6232 36.5497 13.0356 36.5497 15.2816ZM17.9855 11.6232V27.8032C17.9855 29.708 17.1346 33.2368 11.58 33.2368H10.2021V30.3688H11.58C13.7655 30.33 14.6726 29.4056 14.7071 27.8248V27.1726H11.973C9.80044 27.1726 8.31029 25.7083 8.31029 23.5098V15.2816C8.31029 13.0917 9.76588 11.6189 11.973 11.6189H17.9855V11.6232ZM14.7158 14.4609H12.8758C12.1026 14.4609 11.58 15.0008 11.58 15.7524V23.0088C11.58 23.7906 12.1328 24.3305 12.9146 24.3305H14.7158V14.4609ZM20.469 33.2411H36.5497V30.3688H20.469V33.2411ZM75.0561 0H73.8899V44.86H75.0561V0Z" fill="white"/>
</g>
<defs>
<clipPath id="clip0_13_255">
<rect width="155.239" height="44.86" fill="white"/>
</clipPath>
</defs>
</svg>
